<svg width="256" height="256" viewBox="0 0 256 256"
    fill="none" xmlns="http://www.w3.org/2000/svg">
    <path
        d="M17.0664 25.6V230.4C17.0807 244.532 28.534 255.986 42.6664 256H230.4C235.113 256 238.933 252.179 238.933 247.467V51.2C238.933 46.4871 235.113 42.6665 230.4 42.6665H68.2664V25.6C68.2664 11.4617 56.8052 0 42.6664 0C28.5277 0 17.0664 11.4617 17.0664 25.6ZM25.5999 230.4C25.5999 220.974 33.241 213.333 42.6664 213.333C52.0918 213.333 59.7329 220.975 59.7329 230.4V247.467H42.6664C33.241 247.467 25.5999 239.826 25.5999 230.4ZM196.267 247.467H170.667V221.867H196.267V247.467ZM152.286 84.0791L217.566 142.707L214.545 146.27C214.498 146.317 214.464 146.373 214.417 146.424L211.955 149.333L152.179 95.8465C150.559 94.3961 148.107 94.3961 146.487 95.8465L86.754 149.333L81.1092 142.507L108.13 118.31C108.177 118.263 108.228 118.229 108.275 118.182L146.163 84.2496C146.266 84.1669 146.364 84.0787 146.457 83.9851L149.312 81.4251L152.286 84.0791ZM162.133 213.333H136.533V179.2C136.533 176.844 138.444 174.933 140.8 174.933H157.866C160.223 174.933 162.133 176.844 162.133 179.2L162.133 213.333ZM157.866 166.4H140.8C133.731 166.4 128 172.131 128 179.2V213.333H102.4C100.044 213.333 98.1334 211.423 98.1334 209.067V150.571L149.333 104.751L200.533 150.571V209.067C200.533 211.423 198.623 213.333 196.267 213.333H170.667V179.2C170.667 172.131 164.936 166.4 157.866 166.4ZM93.8664 119.616L75.4175 136.107C72.9289 138.363 71.9551 141.847 72.913 145.067H68.2664V119.467H93.8664V119.616ZM79.1809 153.6L80.269 154.88C81.7496 156.637 83.8816 157.715 86.1741 157.867C87.3331 157.935 88.4942 157.768 89.5873 157.376V179.2H68.2668V153.6H79.1809ZM89.5999 187.733V209.067C89.6142 210.524 89.8796 211.967 90.3847 213.333H68.2664V187.733H89.5999ZM209.067 157.359C209.979 157.69 210.942 157.862 211.913 157.867C212.105 157.867 212.301 157.867 212.493 157.845C214.785 157.692 216.917 156.614 218.398 154.859L219.486 153.579H230.4V179.179H209.067V157.359ZM225.754 145.067C226.71 141.847 225.737 138.364 223.249 136.106L209.067 123.434V119.467H230.4V145.067H225.754ZM200.533 102.4V115.797L187.733 104.341V102.4H200.533V102.4ZM132.173 85.3335L103.586 110.933H102.4V85.3335H132.173ZM93.8664 110.933H68.2664V85.3335H93.8664V110.933ZM68.2664 230.4V221.867H93.8664V247.467H68.2664V230.4ZM102.4 221.867H128V247.467H102.4V221.867ZM136.533 221.867H162.133V247.467H136.533V221.867ZM209.067 209.067V187.733H230.4V213.333H208.282C208.787 211.967 209.053 210.524 209.067 209.067ZM230.4 110.933H209.066V102.4C209.057 99.3651 207.431 96.565 204.8 95.0528V85.3335H230.4V110.933ZM196.267 93.8665H187.733C184.798 93.877 182.075 95.3951 180.523 97.8857L166.494 85.3331H196.267V93.8665ZM183.467 76.8H170.667V51.2H196.267V76.8H183.467ZM162.133 76.8H156.958L155.004 75.0506C151.777 72.1576 146.89 72.1576 143.663 75.0506L141.709 76.8H136.534V51.2H162.134V76.8H162.133ZM128 76.8H102.4V51.2H128V76.8ZM93.8664 76.8H68.2664V51.2H93.8664V76.8ZM204.8 247.467V221.867H230.4V247.467H204.8ZM230.4 76.8H204.8V51.2H230.4V76.8ZM42.6664 8.53347C52.0922 8.53347 59.7329 16.1746 59.7329 25.6V211.371C50.0413 202.61 35.2911 202.61 25.5995 211.371V25.6C25.5999 16.1742 33.241 8.53347 42.6664 8.53347Z"
        fill="#000000" />
</svg>