<svg width="40" height="40" viewBox="0 0 40 40" fill="none" xmlns="http://www.w3.org/2000/svg">
<path d="M3 9C3 8.17157 3.67157 7.5 4.5 7.5H38.5C39.3284 7.5 40 8.17157 40 9C40 9.82843 39.3284 10.5 38.5 10.5H4.5C3.67157 10.5 3 9.82843 3 9Z" fill="#28A745"/>
<path d="M17 20C17 19.1716 17.6716 18.5 18.5 18.5H38.5C39.3284 18.5 40 19.1716 40 20C40 20.8284 39.3284 21.5 38.5 21.5H18.5C17.6716 21.5 17 20.8284 17 20Z" fill="#28A745"/>
<path d="M3 31C3 30.1716 3.67157 29.5 4.5 29.5H38.5C39.3284 29.5 40 30.1716 40 31C40 31.8284 39.3284 32.5 38.5 32.5H4.5C3.67157 32.5 3 31.8284 3 31Z" fill="#28A745"/>
</svg>
