<svg width="640" height="640" viewBox="0 0 640 640" fill="none" xmlns="http://www.w3.org/2000/svg">
<path d="M360 64C385 64 407 76.7 419.9 96H448C483.3 96 512 124.7 512 160V512C512 547.3 483.3 576 448 576H192C156.7 576 128 547.3 128 512V160C128 124.7 156.7 96 192 96H220.1C233 76.7 255 64 280 64H360ZM192 144C183.2 144 176 151.2 176 160V512C176 520.8 183.2 528 192 528H448C456.8 528 464 520.8 464 512V160C464 151.2 456.8 144 448 144H431.6C427.6 180 397.1 208 360 208H280C242.9 208 212.4 180 208.4 144H192ZM356.7 303.9C364.5 293.2 379.5 290.8 390.2 298.6C400.9 306.4 403.3 321.4 395.5 332.1L319.4 436.8C315.2 442.5 308.7 446.1 301.6 446.6C294.5 447.1 287.6 444.4 282.7 439.3L246.8 402.1C237.6 392.6 237.9 377.4 247.4 368.2C256.9 359 272.1 359.2 281.3 368.8L297.4 385.4L356.7 303.8V303.9ZM280 112C266.7 112 256 122.7 256 136C256 149.3 266.7 160 280 160H360C373.3 160 384 149.3 384 136C384 122.7 373.3 112 360 112H280Z" fill="black"/>
</svg>
