<svg width="24" height="24" viewBox="0 0 24 24" fill="none" xmlns="http://www.w3.org/2000/svg">
<path fill-rule="evenodd" clip-rule="evenodd" d="M23.25 11.625C23.25 18.0469 18.0469 23.25 11.625 23.25C5.20312 23.25 0 18.0469 0 11.625C0 5.20312 5.20312 0 11.625 0C18.0469 0 23.25 5.20312 23.25 11.625ZM6.1875 12.4688C5.87813 12.4688 5.625 12.2156 5.625 11.9062V11.3438C5.625 11.0344 5.87813 10.7812 6.1875 10.7812H17.0625C17.3719 10.7812 17.625 11.0344 17.625 11.3438V11.9062C17.625 12.2156 17.3719 12.4688 17.0625 12.4688H6.1875ZM11.625 1.5C17.1891 1.5 21.75 6.00469 21.75 11.625C21.75 17.1891 17.2453 21.75 11.625 21.75C6.06094 21.75 1.5 17.2453 1.5 11.625C1.5 6.06094 6.00469 1.5 11.625 1.5Z" fill="#495057"/>
</svg>
