<svg width="256" height="256" viewBox="0 0 256 256"
    fill="none" xmlns="http://www.w3.org/2000/svg">
    <g clip-path="url(#clip0_4057_1339)">
        <path
            d="M167.429 17.066H148.315C142.992 17.0731 138.679 21.3863 138.672 26.7085V29.5926L108.878 2.53336C105.233 -0.845429 99.5996 -0.845429 95.9542 2.53336L9.60951 80.9211C5.67725 84.5594 5.30141 90.6464 8.7562 94.7407L15.9157 103.214C17.5891 105.232 20.023 106.468 22.6401 106.627C24.4206 106.724 26.1927 106.325 27.7599 105.475V172.671C27.7716 180.976 34.4948 187.709 42.7998 187.733H153.106L150.247 200.533H134.405C132.049 200.533 130.139 202.443 130.139 204.799C130.139 207.155 132.049 209.066 134.405 209.066H148.34L143.25 231.863C142.118 236.994 144.236 242.296 148.592 245.234L147.312 250.781C147.057 251.884 147.251 253.044 147.851 254.004C148.451 254.965 149.409 255.647 150.513 255.901C150.828 255.969 151.15 256.002 151.473 256C153.459 255.999 155.182 254.628 155.628 252.693L156.857 247.372C162.405 246.92 167.011 242.907 168.219 237.474L174.559 209.066H185.606V213.333C185.606 215.689 187.516 217.599 189.872 217.599C192.229 217.599 194.139 215.689 194.139 213.333V209.066H205.185L211.521 237.486C212.736 242.914 217.34 246.92 222.883 247.372L224.112 252.693C224.559 254.63 226.284 256.001 228.272 256C228.596 256 228.919 255.964 229.236 255.893C230.34 255.639 231.297 254.956 231.897 253.996C232.497 253.036 232.691 251.876 232.436 250.773L231.156 245.226C235.51 242.28 237.626 236.975 236.494 231.842L231.4 209.066H245.339C247.695 209.066 249.605 207.156 249.605 204.799C249.605 202.443 247.695 200.533 245.339 200.533H229.497L216.368 141.73C220.112 134.548 220.767 126.151 218.183 118.476C215.599 110.801 209.998 104.51 202.672 101.056V76.7995C202.638 69.7446 196.927 64.0343 189.872 63.9995C186.445 64.0045 183.163 65.3882 180.767 67.8394L177.072 64.4643V26.7089C177.065 21.3863 172.752 17.0731 167.429 17.066ZM147.205 26.7089C147.219 26.1021 147.708 25.6133 148.315 25.5995H167.429C168.036 25.6129 168.525 26.1017 168.539 26.7089V56.7166L147.205 37.3417V26.7089ZM104.539 179.199H83.2054V132.266C83.2054 129.91 85.1157 127.999 87.4719 127.999H117.338C119.695 127.999 121.605 129.91 121.605 132.266V179.199H104.539ZM130.139 179.199V132.266C130.139 125.197 124.408 119.466 117.339 119.466H87.4719C80.4028 119.466 74.6719 125.197 74.6719 132.266V179.199H42.7998C39.1976 179.192 36.2787 176.274 36.2719 172.672V98.1544L102.406 38.1051L169.563 99.0715C169.679 99.208 169.803 99.3377 169.934 99.4599L173.732 102.908C160.741 111.211 156.246 128.064 163.377 141.734L155.01 179.2H130.139V179.199ZM159.899 235.605C159.47 237.556 157.737 238.943 155.739 238.933C155.421 238.924 155.104 238.888 154.792 238.826C153.685 238.575 152.725 237.894 152.122 236.933C151.519 235.972 151.324 234.811 151.579 233.706L170.181 150.387C172.459 152.405 175.032 154.064 177.81 155.306L159.899 235.605ZM194.139 200.533V196.266C194.139 193.91 192.229 192 189.872 192C187.516 192 185.606 193.91 185.606 196.266V200.533H176.462L186.032 157.593C188.579 157.959 191.166 157.959 193.713 157.593L203.283 200.533H194.139ZM219.846 235.618L201.934 155.306C204.711 154.069 207.284 152.416 209.563 150.404L228.161 233.719C228.65 235.881 227.391 238.054 225.273 238.707C225.188 238.728 225.128 238.788 225.042 238.813C223.929 239.092 222.749 238.91 221.771 238.309C220.794 237.708 220.099 236.738 219.846 235.618ZM211.205 127.999C211.205 139.782 201.654 149.333 189.872 149.333C178.09 149.333 168.538 139.782 168.538 127.999C168.538 116.217 178.09 106.666 189.872 106.666C201.649 106.68 211.192 116.223 211.205 127.999ZM189.872 72.533C191.023 72.5309 192.124 73.005 192.914 73.8427C193.707 74.6213 194.149 75.6887 194.138 76.7995V98.4744C191.312 98.0191 188.432 98.0191 185.605 98.4744V76.7995C185.605 74.4432 187.516 72.533 189.872 72.533ZM177.072 76.7995V94.4123L176.052 93.4822C175.934 93.3453 175.807 93.2159 175.673 93.0937L105.273 29.1836C103.646 27.7075 101.165 27.7075 99.5379 29.1836L29.0188 93.2134L28.976 93.2563L23.8986 97.86C23.7134 98.0632 23.4421 98.1649 23.1692 98.1329C22.874 98.1141 22.6014 97.9675 22.4225 97.7319L15.2631 89.2497C14.7864 88.6387 14.8301 87.7702 15.3655 87.2101L101.71 8.81431C102.104 8.43343 102.729 8.43343 103.122 8.81431L177.149 76.0402C177.132 76.309 177.072 76.5433 177.072 76.7995Z"
            fill="#ffffff" />
        <path
            d="M177.072 127.999C177.072 135.069 182.803 140.799 189.872 140.799C196.941 140.799 202.672 135.069 202.672 127.999C202.672 120.93 196.941 115.199 189.872 115.199C182.803 115.199 177.072 120.93 177.072 127.999ZM194.139 127.999C194.139 130.356 192.229 132.266 189.873 132.266C187.516 132.266 185.606 130.356 185.606 127.999C185.606 125.643 187.516 123.733 189.873 123.733C192.229 123.733 194.139 125.643 194.139 127.999Z"
            fill="#ffffff" />
    </g>
    <defs>
        <clipPath id="clip0_4057_1339">
            <rect width="256" height="256" fill="white" />
        </clipPath>
    </defs>
</svg>