<svg width="256" height="256" viewBox="0 0 256 256"
    fill="none" xmlns="http://www.w3.org/2000/svg">
    <g clip-path="url(#clip0_4057_1340)">
        <path
            d="M253.263 187.702L202.725 140.77C201.144 139.303 199.066 138.489 196.909 138.491H187.732V112.384C188.645 112.715 189.607 112.887 190.578 112.892H191.158C193.45 112.738 195.581 111.66 197.063 109.905L202.712 103.305C205.766 99.7027 205.412 94.3272 201.91 91.158L187.732 78.4607V48.8933C187.732 44.1804 183.912 40.36 179.199 40.36H166.399C161.686 40.36 157.866 44.1804 157.866 48.8933V51.7307L133.67 30.0734C130.441 27.1865 125.558 27.1865 122.33 30.0734L54.0899 91.1324C50.589 94.3003 50.2342 99.6745 53.2879 103.275L58.9367 109.905C60.422 111.663 62.5582 112.741 64.8543 112.892C66.0129 112.963 67.174 112.799 68.2675 112.41V138.491H59.7346C57.5896 138.486 55.5223 139.294 53.9493 140.753L2.74976 187.685C1.1553 189.192 0.212143 191.262 0.121439 193.454C0.070208 193.619 0.030315 193.787 0.00217993 193.957V219.557C-0.0498909 221.835 0.832794 224.036 2.44447 225.648C4.05615 227.259 6.25698 228.142 8.5355 228.09H247.465C249.743 228.142 251.944 227.259 253.556 225.648C255.167 224.036 256.05 221.835 255.998 219.557V193.957C255.974 193.771 255.937 193.587 255.887 193.407C255.78 191.238 254.841 189.194 253.263 187.702ZM140.8 168.358H115.2V134.225C115.2 131.869 117.11 129.958 119.467 129.958H136.533C138.889 129.958 140.799 131.869 140.799 134.225L140.8 168.358ZM136.533 121.425H119.467C112.398 121.425 106.667 127.156 106.667 134.225V168.358H81.0677C78.7115 168.358 76.8012 166.447 76.8012 164.091V105.6L128 59.7769L179.199 105.6V164.091C179.199 166.447 177.289 168.357 174.933 168.357H149.333V134.224C149.333 127.156 143.602 121.425 136.533 121.425ZM166.399 48.8929H179.199V70.8231L166.399 59.3671V48.8929ZM59.7816 97.5321L128 36.4345L196.265 97.7496L190.621 104.358L130.846 50.8724C129.226 49.422 126.774 49.422 125.154 50.8724L65.4216 104.358L59.7816 97.5321ZM59.7346 147.025H68.2679V164.091C68.2679 171.16 73.9986 176.891 81.0677 176.891H174.933C182.002 176.891 187.732 171.16 187.732 164.091V147.025H196.91L247.465 193.957H8.5355L59.7346 147.025ZM8.5355 219.557V202.491H247.465V219.557H8.5355Z"
            fill="#000000" />
    </g>
    <defs>
        <clipPath id="clip0_4057_1340">
            <rect width="256" height="256" fill="white" />
        </clipPath>
    </defs>
</svg>