<svg width="640" height="640" viewBox="0 0 640 640" fill="none" xmlns="http://www.w3.org/2000/svg">
<path d="M528 320C528 336.4 526.1 352.3 522.5 367.6L160.4 186.6C198.6 140.9 256 112 320 112C434.9 112 528 205.1 528 320ZM520.4 420.2C536.2 428.1 555.6 421.7 561.5 405.1C570.9 378.5 576 349.8 576 320C576 178.6 461.4 64 320 64C231.2 64 153 109.2 107.1 177.8C97.3004 192.5 103.8 211.9 119.6 219.8L292.1 306.1L290.5 309.3L181.1 528H87.9004C74.6004 528 63.9004 538.7 63.9004 552C63.9004 565.3 74.6004 576 87.9004 576H551.9C565.2 576 575.9 565.3 575.9 552C575.9 538.7 565.2 528 551.9 528H234.7L333.3 330.7L334.9 327.5L520.3 420.2H520.4Z" fill="black"/>
</svg>
