<svg width="118" height="35" viewBox="0 0 118 35" fill="none" xmlns="http://www.w3.org/2000/svg">
<path d="M45.3652 1.27271H47.6042L49.7601 5.34444H49.8524L52.0083 1.27271H54.2473L50.7988 7.38492V10.7273H48.8137V7.38492L45.3652 1.27271Z" fill="#495057"/>
<path d="M36.875 2.92079V1.27271H44.6399V2.92079H41.7454V10.7273H39.7695V2.92079H36.875Z" fill="#495057"/>
<path d="M35.5907 1.27271V10.7273H33.5918V1.27271H35.5907Z" fill="#495057"/>
<path d="M26.2168 10.7273V1.27271H28.2157V9.07917H32.269V10.7273H26.2168Z" fill="#495057"/>
<path d="M18.1206 10.7273H15.9785L19.2424 1.27271H21.8184L25.0776 10.7273H22.9355L20.5673 3.43322H20.4934L18.1206 10.7273ZM17.9867 7.01099H23.0463V8.57136H17.9867V7.01099Z" fill="#495057"/>
<path d="M8.53125 10.7273V1.27271H14.902V2.92079H10.5302V5.17363H14.5742V6.82171H10.5302V9.07917H14.9205V10.7273H8.53125Z" fill="#495057"/>
<path d="M0 10.7273V1.27271H3.73011C4.44413 1.27271 5.0535 1.40043 5.55824 1.65587C6.06605 1.90824 6.4523 2.26679 6.71697 2.73151C6.98473 3.19316 7.11861 3.73637 7.11861 4.36113C7.11861 4.98897 6.98319 5.5291 6.71236 5.98151C6.44152 6.43085 6.04912 6.77555 5.53516 7.0156C5.02427 7.25566 4.40566 7.37569 3.67933 7.37569H1.18182V5.76915H3.35618C3.73781 5.76915 4.05481 5.71683 4.30717 5.61219C4.55954 5.50755 4.74728 5.35059 4.87038 5.14131C4.99657 4.93203 5.05966 4.67197 5.05966 4.36113C5.05966 4.04721 4.99657 3.78253 4.87038 3.56709C4.74728 3.35166 4.558 3.18854 4.30256 3.07775C4.05019 2.96387 3.73165 2.90694 3.34695 2.90694H1.99893V10.7273H0ZM5.10582 6.42469L7.45561 10.7273H5.24893L2.94993 6.42469H5.10582Z" fill="#495057"/>
<circle opacity="0.4" cx="61.248" cy="6" r="6" fill="#FFC247"/>
<circle opacity="0.4" cx="61.248" cy="6" r="4" fill="#FFC247"/>
<circle cx="61.248" cy="6" r="2" fill="#FFC247"/>
<path d="M106.219 34.0469V18.0469H117.375V21.1875H110.086V24.4687H116.805V27.6172H110.086V30.9062H117.375V34.0469H106.219Z" fill="#212529"/>
<path d="M103.791 18.0469V34.0469H99.9238V18.0469H103.791Z" fill="#212529"/>
<path d="M94.0488 22.8437C93.9967 22.2708 93.765 21.8255 93.3535 21.5078C92.9473 21.1849 92.3665 21.0234 91.6113 21.0234C91.1113 21.0234 90.6947 21.0885 90.3613 21.2187C90.028 21.349 89.778 21.5286 89.6113 21.7578C89.4447 21.9818 89.3587 22.2396 89.3535 22.5313C89.3431 22.7708 89.39 22.9818 89.4941 23.1641C89.6035 23.3464 89.7598 23.5078 89.9629 23.6484C90.1712 23.7839 90.4212 23.9036 90.7129 24.0078C91.0046 24.112 91.3327 24.2031 91.6973 24.2813L93.0723 24.5938C93.8639 24.7656 94.5618 24.9948 95.166 25.2813C95.7754 25.5677 96.2858 25.9089 96.6973 26.3047C97.1139 26.7005 97.429 27.1562 97.6426 27.6719C97.8561 28.1875 97.9655 28.7656 97.9707 29.4062C97.9655 30.4167 97.7103 31.2839 97.2051 32.0078C96.6999 32.7318 95.9733 33.2865 95.0254 33.6719C94.0827 34.0573 92.9447 34.25 91.6113 34.25C90.2728 34.25 89.1061 34.0495 88.1113 33.6484C87.1165 33.2474 86.3431 32.638 85.791 31.8203C85.2389 31.0026 84.9551 29.9688 84.9395 28.7188H88.6426C88.6738 29.2344 88.8118 29.6641 89.0566 30.0078C89.3014 30.3516 89.6374 30.612 90.0645 30.7891C90.4967 30.9661 90.9967 31.0547 91.5645 31.0547C92.0853 31.0547 92.528 30.9844 92.8926 30.8438C93.2624 30.7031 93.5462 30.5078 93.7441 30.2578C93.9421 30.0078 94.0436 29.7214 94.0488 29.3984C94.0436 29.0964 93.9499 28.8385 93.7676 28.625C93.5853 28.4062 93.304 28.2188 92.9238 28.0625C92.5488 27.901 92.0697 27.7526 91.4863 27.6172L89.8145 27.2266C88.429 26.9089 87.3379 26.3958 86.541 25.6875C85.7441 24.974 85.3483 24.0104 85.3535 22.7969C85.3483 21.8073 85.6139 20.9401 86.1504 20.1953C86.6868 19.4505 87.429 18.8698 88.377 18.4531C89.3249 18.0365 90.4056 17.8281 91.6191 17.8281C92.8587 17.8281 93.9342 18.0391 94.8457 18.4609C95.7624 18.8776 96.4733 19.4635 96.9785 20.2188C97.4837 20.974 97.7415 21.849 97.752 22.8437H94.0488Z" fill="#212529"/>
<path d="M71.8223 34.0469V18.0469H82.9785V21.1875H75.6895V24.4688H82.4082V27.6172H75.6895V30.9062H82.9785V34.0469H71.8223ZM76.1191 16.5234L77.6973 13H81.0801L78.7207 16.5234H76.1191Z" fill="#212529"/>
<path d="M69.3906 18.0469V34.0469H66.1094L59.7422 24.8125H59.6406V34.0469H55.7734V18.0469H59.1016L65.3984 27.2656H65.5312V18.0469H69.3906Z" fill="#212529"/>
<path d="M53.5156 26.0469C53.5156 27.8073 53.1771 29.2995 52.5 30.5234C51.8229 31.7474 50.9062 32.6771 49.75 33.3125C48.599 33.9479 47.3073 34.2656 45.875 34.2656C44.4375 34.2656 43.1432 33.9453 41.9922 33.3047C40.8411 32.6641 39.9271 31.7344 39.25 30.5156C38.5781 29.2917 38.2422 27.8021 38.2422 26.0469C38.2422 24.2865 38.5781 22.7943 39.25 21.5703C39.9271 20.3464 40.8411 19.4167 41.9922 18.7812C43.1432 18.1458 44.4375 17.8281 45.875 17.8281C47.3073 17.8281 48.599 18.1458 49.75 18.7812C50.9062 19.4167 51.8229 20.3464 52.5 21.5703C53.1771 22.7943 53.5156 24.2865 53.5156 26.0469ZM49.5625 26.0469C49.5625 25.0052 49.4141 24.125 49.1172 23.4063C48.8255 22.6875 48.4036 22.1432 47.8516 21.7734C47.3047 21.4036 46.6458 21.2187 45.875 21.2187C45.1094 21.2187 44.4505 21.4036 43.8984 21.7734C43.3464 22.1432 42.9219 22.6875 42.625 23.4063C42.3333 24.125 42.1875 25.0052 42.1875 26.0469C42.1875 27.0885 42.3333 27.9688 42.625 28.6875C42.9219 29.4062 43.3464 29.9505 43.8984 30.3203C44.4505 30.6901 45.1094 30.875 45.875 30.875C46.6458 30.875 47.3047 30.6901 47.8516 30.3203C48.4036 29.9505 48.8255 29.4062 49.1172 28.6875C49.4141 27.9688 49.5625 27.0885 49.5625 26.0469Z" fill="#212529"/>
<path d="M28.2578 34.0469H22.3438V18.0469H28.25C29.8802 18.0469 31.2839 18.3672 32.4609 19.0078C33.6432 19.6432 34.5547 20.5599 35.1953 21.7578C35.8359 22.9505 36.1562 24.3776 36.1562 26.0391C36.1562 27.7057 35.8359 29.138 35.1953 30.3359C34.5599 31.5339 33.651 32.4531 32.4688 33.0938C31.2865 33.7292 29.8828 34.0469 28.2578 34.0469ZM26.2109 30.75H28.1094C29.0052 30.75 29.763 30.599 30.3828 30.2969C31.0078 29.9896 31.4792 29.4922 31.7969 28.8047C32.1198 28.112 32.2812 27.1901 32.2812 26.0391C32.2812 24.888 32.1198 23.9714 31.7969 23.2891C31.474 22.6016 30.9974 22.1068 30.3672 21.8047C29.7422 21.4974 28.9714 21.3437 28.0547 21.3437H26.2109V30.75Z" fill="#212529"/>
<path d="M19.9121 18.0469V34.0469H16.6309L10.2637 24.8125H10.1621V34.0469H6.29492V18.0469H9.62305L15.9199 27.2656H16.0527V18.0469H19.9121Z" fill="#212529"/>
<path d="M3.86719 18.0469V34.0469H0V18.0469H3.86719Z" fill="#212529"/>
</svg>
