<svg width="118" height="35" viewBox="0 0 118 35" fill="none" xmlns="http://www.w3.org/2000/svg">
<path d="M45.3652 1.53833H47.6042L49.7601 5.61006H49.8524L52.0083 1.53833H54.2473L50.7988 7.65055V10.9929H48.8137V7.65055L45.3652 1.53833Z" fill="#6C757D"/>
<path d="M36.875 3.18641V1.53833H44.6399V3.18641H41.7454V10.9929H39.7695V3.18641H36.875Z" fill="#6C757D"/>
<path d="M35.5907 1.53833V10.9929H33.5918V1.53833H35.5907Z" fill="#6C757D"/>
<path d="M26.2168 10.9929V1.53833H28.2157V9.34479H32.269V10.9929H26.2168Z" fill="#6C757D"/>
<path d="M18.1206 10.9929H15.9785L19.2424 1.53833H21.8184L25.0776 10.9929H22.9355L20.5673 3.69884H20.4934L18.1206 10.9929ZM17.9867 7.27661H23.0463V8.83698H17.9867V7.27661Z" fill="#6C757D"/>
<path d="M8.53125 10.9929V1.53833H14.902V3.18641H10.5302V5.43925H14.5742V7.08734H10.5302V9.34479H14.9205V10.9929H8.53125Z" fill="#6C757D"/>
<path d="M0 10.9929V1.53833H3.73011C4.44413 1.53833 5.0535 1.66605 5.55824 1.9215C6.06605 2.17387 6.4523 2.53241 6.71697 2.99714C6.98473 3.45878 7.11861 4.00199 7.11861 4.62675C7.11861 5.25459 6.98319 5.79472 6.71236 6.24714C6.44152 6.69647 6.04912 7.04117 5.53516 7.28123C5.02427 7.52129 4.40566 7.64131 3.67933 7.64131H1.18182V6.03478H3.35618C3.73781 6.03478 4.05481 5.98246 4.30717 5.87782C4.55954 5.77318 4.74728 5.61622 4.87038 5.40694C4.99657 5.19766 5.05966 4.9376 5.05966 4.62675C5.05966 4.31283 4.99657 4.04816 4.87038 3.83272C4.74728 3.61728 4.558 3.45417 4.30256 3.34337C4.05019 3.2295 3.73165 3.17256 3.34695 3.17256H1.99893V10.9929H0ZM5.10582 6.69032L7.45561 10.9929H5.24893L2.94993 6.69032H5.10582Z" fill="#6C757D"/>
<circle opacity="0.4" cx="61.248" cy="6.26562" r="6" fill="#FFC247"/>
<circle opacity="0.4" cx="61.248" cy="6.26562" r="4" fill="#FFC247"/>
<circle cx="61.248" cy="6.26562" r="2" fill="#FFC247"/>
<path d="M106.219 34.3125V18.3125H117.375V21.4531H110.086V24.7344H116.805V27.8828H110.086V31.1719H117.375V34.3125H106.219Z" fill="white"/>
<path d="M103.791 18.3125V34.3125H99.9238V18.3125H103.791Z" fill="white"/>
<path d="M94.0488 23.1094C93.9967 22.5365 93.765 22.0911 93.3535 21.7734C92.9473 21.4505 92.3665 21.2891 91.6113 21.2891C91.1113 21.2891 90.6947 21.3542 90.3613 21.4844C90.028 21.6146 89.778 21.7943 89.6113 22.0234C89.4447 22.2474 89.3587 22.5052 89.3535 22.7969C89.3431 23.0365 89.39 23.2474 89.4941 23.4297C89.6035 23.612 89.7598 23.7734 89.9629 23.9141C90.1712 24.0495 90.4212 24.1693 90.7129 24.2734C91.0046 24.3776 91.3327 24.4688 91.6973 24.5469L93.0723 24.8594C93.8639 25.0313 94.5618 25.2604 95.166 25.5469C95.7754 25.8333 96.2858 26.1745 96.6973 26.5703C97.1139 26.9661 97.429 27.4219 97.6426 27.9375C97.8561 28.4531 97.9655 29.0312 97.9707 29.6719C97.9655 30.6823 97.7103 31.5495 97.2051 32.2734C96.6999 32.9974 95.9733 33.5521 95.0254 33.9375C94.0827 34.3229 92.9447 34.5156 91.6113 34.5156C90.2728 34.5156 89.1061 34.3151 88.1113 33.9141C87.1165 33.513 86.3431 32.9036 85.791 32.0859C85.2389 31.2682 84.9551 30.2344 84.9395 28.9844H88.6426C88.6738 29.5 88.8118 29.9297 89.0566 30.2734C89.3014 30.6172 89.6374 30.8776 90.0645 31.0547C90.4967 31.2318 90.9967 31.3203 91.5645 31.3203C92.0853 31.3203 92.528 31.25 92.8926 31.1094C93.2624 30.9688 93.5462 30.7734 93.7441 30.5234C93.9421 30.2734 94.0436 29.987 94.0488 29.6641C94.0436 29.362 93.9499 29.1042 93.7676 28.8906C93.5853 28.6719 93.304 28.4844 92.9238 28.3281C92.5488 28.1667 92.0697 28.0182 91.4863 27.8828L89.8145 27.4922C88.429 27.1745 87.3379 26.6615 86.541 25.9531C85.7441 25.2396 85.3483 24.276 85.3535 23.0625C85.3483 22.0729 85.6139 21.2057 86.1504 20.4609C86.6868 19.7161 87.429 19.1354 88.377 18.7188C89.3249 18.3021 90.4056 18.0938 91.6191 18.0938C92.8587 18.0938 93.9342 18.3047 94.8457 18.7266C95.7624 19.1432 96.4733 19.7292 96.9785 20.4844C97.4837 21.2396 97.7415 22.1146 97.752 23.1094H94.0488Z" fill="white"/>
<path d="M71.8223 34.3125V18.3125H82.9785V21.4531H75.6895V24.7344H82.4082V27.8828H75.6895V31.1719H82.9785V34.3125H71.8223ZM76.1191 16.7891L77.6973 13.2656H81.0801L78.7207 16.7891H76.1191Z" fill="white"/>
<path d="M69.3906 18.3125V34.3125H66.1094L59.7422 25.0781H59.6406V34.3125H55.7734V18.3125H59.1016L65.3984 27.5312H65.5312V18.3125H69.3906Z" fill="white"/>
<path d="M53.5156 26.3125C53.5156 28.0729 53.1771 29.5651 52.5 30.7891C51.8229 32.013 50.9062 32.9427 49.75 33.5781C48.599 34.2135 47.3073 34.5312 45.875 34.5312C44.4375 34.5312 43.1432 34.2109 41.9922 33.5703C40.8411 32.9297 39.9271 32 39.25 30.7812C38.5781 29.5573 38.2422 28.0677 38.2422 26.3125C38.2422 24.5521 38.5781 23.0599 39.25 21.8359C39.9271 20.612 40.8411 19.6823 41.9922 19.0469C43.1432 18.4115 44.4375 18.0938 45.875 18.0938C47.3073 18.0938 48.599 18.4115 49.75 19.0469C50.9062 19.6823 51.8229 20.612 52.5 21.8359C53.1771 23.0599 53.5156 24.5521 53.5156 26.3125ZM49.5625 26.3125C49.5625 25.2708 49.4141 24.3906 49.1172 23.6719C48.8255 22.9531 48.4036 22.4089 47.8516 22.0391C47.3047 21.6693 46.6458 21.4844 45.875 21.4844C45.1094 21.4844 44.4505 21.6693 43.8984 22.0391C43.3464 22.4089 42.9219 22.9531 42.625 23.6719C42.3333 24.3906 42.1875 25.2708 42.1875 26.3125C42.1875 27.3542 42.3333 28.2344 42.625 28.9531C42.9219 29.6719 43.3464 30.2161 43.8984 30.5859C44.4505 30.9557 45.1094 31.1406 45.875 31.1406C46.6458 31.1406 47.3047 30.9557 47.8516 30.5859C48.4036 30.2161 48.8255 29.6719 49.1172 28.9531C49.4141 28.2344 49.5625 27.3542 49.5625 26.3125Z" fill="white"/>
<path d="M28.2578 34.3125H22.3438V18.3125H28.25C29.8802 18.3125 31.2839 18.6328 32.4609 19.2734C33.6432 19.9089 34.5547 20.8255 35.1953 22.0234C35.8359 23.2161 36.1562 24.6432 36.1562 26.3047C36.1562 27.9714 35.8359 29.4036 35.1953 30.6016C34.5599 31.7995 33.651 32.7188 32.4688 33.3594C31.2865 33.9948 29.8828 34.3125 28.2578 34.3125ZM26.2109 31.0156H28.1094C29.0052 31.0156 29.763 30.8646 30.3828 30.5625C31.0078 30.2552 31.4792 29.7578 31.7969 29.0703C32.1198 28.3776 32.2812 27.4557 32.2812 26.3047C32.2812 25.1536 32.1198 24.237 31.7969 23.5547C31.474 22.8672 30.9974 22.3724 30.3672 22.0703C29.7422 21.763 28.9714 21.6094 28.0547 21.6094H26.2109V31.0156Z" fill="white"/>
<path d="M19.9121 18.3125V34.3125H16.6309L10.2637 25.0781H10.1621V34.3125H6.29492V18.3125H9.62305L15.9199 27.5312H16.0527V18.3125H19.9121Z" fill="white"/>
<path d="M3.86719 18.3125V34.3125H0V18.3125H3.86719Z" fill="white"/>
</svg>
