<svg
	version="1.2"
	xmlns="http://www.w3.org/2000/svg"
	viewBox="0 0 675 663"
	fill="#ffffff"


>
	<g id="Layer 1">
		<path
			id="Shape 1"
			fill-rule="evenodd"
			class="s0"
			d="m86 62c0 0-14-28.8-9.4-31.6 3.8-2.3 36.6 22.8 44.7 26.2 8.5 3.6 26.2 1 56.7 9.4 32.2 8.9 52.8 27 75.7 46.5 18.7 15.9 32.7 32.9 48.3 58.5 4.5 7.4 9.7 23.3 16.1 31.1 18.9 22.9 50.7 25.1 67.3 27.6 27.2 4.2 117.4-5.3 165.4-1.1 30.4 2.6 39.1 10.4 43.7 13.3 5.5 3.5 9.3 8.1 12.4 11.4 0 0 28.5 13.1 39.2 45.4 16.3 49.3-0.6 101.3-5.3 122.4-1.1 5-26.8 18-28.3 24.5-2.2 9.9 5.5 111.2 4 164-0.1 5.2-2.4 21.4-6.5 21.5-23.3 0.7-57.2-0.2-73.5-0.2-9 0-11.4-23.2-11.7-30.4-1.6-33.8-0.4-123.2 0.9-125.7 1.2-2.5 33.3-10.6 43.7-30.1 9.2-17.1-52.5-38.3-56.8-45.7-4.7-8.2-0.8-22.9-4.4-27.3-5-6.2-15 9.9-17.8 16.7-8.7 21-10.5 36.3-28.1 65.7-8.3 13.8-14.4 21.8-28.2 28.3-9.5 4.4-48.6 5-78.6 6.5-31.2 1.6-114.2 2.8-129.5-31.9-6.4-14.4-14.6-31.4-18.2-30.2-4.4 1.3 2.8 31.3 7.3 44.2 7.6 22.1 14.8 33.1 19.6 46.1 6.1 16.3 4.8 113 3.9 113.6-1.4 0.9-80.3 0.6-81 0.1-0.6-0.5-1.6-200-2.5-306.8l81-5.5v42.3l36.1-0.1 0.3 37.8h43l-0.3-37.5 37.3 0.3v-42.8l-37 0.1v-36.1h-43v36h-36.4l-81 5.5c-0.3-29.8-0.6-51.5-0.8-58.2-2-56-5.9-71.1-17.4-76.9-22.2-11.2-53.3 21.9-83.4 36.1-30.6 14.4-38.1-7.9-35.8-26.9 2.5-21.5 16.3-41.8 31.9-67.4 27.4-45.3 36.4-68.7 36.4-68.7z"
		/>
		<path
			id="Shape 3"
			fill-rule="evenodd"
			class="s0"
			d="m296 559.3c1.3-0.5-0.8-7.4 16.8-15.8 18.7-9 25.2-3.8 26.2-4.5 2.4-1.6 2.4-7.1 8.1-10.4 7.5-4.4 12.9-7.5 14.5-7.5 1.6 0 0.8 4.6 0.5 6.4-0.9 5.2-3 13.7-1.8 15.4 1.4 2 5.9 2.1 7.7 5.1 1 1.6 1.9 13.2 3.2 13.1 2.3-0.2 9.7-10.9 13.8-13.5 11.8-7.3 28.7-10.8 40.4-10.8 30-0.1 53.3 19.4 54.4 20.6 9.2 10.4 12 37.6 11.9 44.9-0.5 27.8-4 28.7-6.3 28.7-15.8 0-133.2 0-163.4 0-2.8 0-4-3.5-3.9-7.9 0-5.2 0.2-17-2-19.6-2.5-2.9-9.8-1.8-14-3.3-12.3-4.4-13.4-12.1-17.6-23.2-0.6-1.5-13.1-9-12.9-11.5 0.3-2.9 12.6-5.7 14.3-5.9 3.4-0.4 9.3 0 10.1-0.3z"
		/>
	</g>
</svg>
